<?xml version="1.0" encoding="UTF-8"?>
<svg id="Layer_1" xmlns="http://www.w3.org/2000/svg" version="1.1" viewBox="0 0 128 128">
  <!-- Generator: Adobe Illustrator 29.8.3, SVG Export Plug-In . SVG Version: 2.1.1 Build 3)  -->
  <defs>
    <style>
      .st0 {
        fill: #cf4929;
      }

      .st1 {
        fill: #eeeed8;
      }
    </style>
  </defs>
  <circle class="st0" cx="64" cy="64" r="64"/>
  <g>
    <path class="st1" d="M30.75,94.02c-.26,0-.52-.1-.72-.28-.43-.4-.45-1.06-.06-1.49,9.88-10.66,15.51-19.01,22.04-28.67,2.78-4.12,5.66-8.38,9.15-13.28,6.12-8.59,12.99-17.59,21.67-25.19.19-.17.44-.26.69-.26.3,0,.59.13.79.36.19.21.27.48.26.77-.02.28-.14.54-.36.72-8.51,7.46-15.29,16.35-21.34,24.83-3.48,4.88-6.35,9.13-9.12,13.23-6.57,9.74-12.25,18.15-22.24,28.93-.2.22-.48.34-.77.34h0Z"/>
    <path class="st1" d="M77.1,94.01c-.27,0-.53-.12-.73-.32-.2-.2-.3-.47-.29-.75l.54-25.73s0-.09.01-.13c.35-2.37.7-4.75,1.05-7.13.8-5.46,1.64-11.11,2.43-16.7.57-4.01,1.11-8.09,1.62-12.04l.05-.42c.22-1.66.43-3.31.66-4.97.07-.52.52-.91,1.05-.91.04,0,.09,0,.13.01.28.04.53.18.7.41.17.22.24.5.21.78-.22,1.68-.44,3.36-.67,5.04l-.05.34c-.52,3.97-1.06,8.05-1.62,12.07-.78,5.54-1.61,11.16-2.42,16.6l-.02.12c-.35,2.35-.69,4.71-1.04,7.07l-.54,25.66c-.01.57-.49,1.03-1.05,1.03h-.03,0Z"/>
    <path class="st1" d="M42.87,79.34c-.24,0-.82-.11-.82-1.13,0-.58.47-1.05,1.05-1.05.42,0,.68.02,1.01.03.12,0,.25.02.4.02.57.03,1.09.05,1.62.05.67,0,1.21-.04,1.71-.13,7.78-1.4,15.61-2.89,23.17-4.32,2.55-.48,5.1-.97,7.65-1.45.07-.01.13-.02.2-.02.5,0,1.04.35,1.04.91,0,.68-.24.84-.78.95-2.5.47-5,.95-7.5,1.42l-.15.03c-7.61,1.44-15.46,2.93-23.19,4.33-.62.11-1.29.16-2.09.16-.57,0-1.15-.03-1.7-.05h-.07c-.22,0-.46.05-.71.12-.27.06-.56.13-.85.13h.02Z"/>
  </g>
</svg>