<?xml version="1.0" encoding="UTF-8"?>
<svg id="Layer_1" xmlns="http://www.w3.org/2000/svg" version="1.1" viewBox="0 0 128 128">
  <!-- Generator: Adobe Illustrator 29.8.3, SVG Export Plug-In . SVG Version: 2.1.1 Build 3)  -->
  <defs>
    <style>
      .st0 {
        fill: #fff;
      }

      .st1 {
        fill: none;
        stroke: #1d1d1b;
        stroke-linecap: round;
        stroke-miterlimit: 10;
        stroke-width: .5px;
      }

      .st2 {
        fill: #1d1d1b;
      }
    </style>
  </defs>
  <g id="Capa_3">
    <rect x="37.43" y="30.93" width="90.54" height="90.54"/>
  </g>
  <g id="Capa_2">
    <path class="st0" d="M92.49,78.41l-9.9-6.96.79-5.4,7.72-13.33-11.4-1.98c-.25-1.16-1.24-2.04-2.49-2.04-1.44,0-2.6,1.16-2.6,2.6s1.16,2.6,2.6,2.6c1.13,0,2.07-.74,2.43-1.75l9.22,1.58-6.76,11.69-1.02,6.65,9.31,6.54-12.36,13.67,3.59,13.41c.08.31.37.54.68.54h.17c.37-.11.59-.48.51-.88l-3.4-12.65,12.93-14.26-.03-.03Z"/>
    <g>
      <circle class="st2" cx="2.63" cy="5.13" r="2.6"/>
      <polyline class="st1" points="4.24 5.13 15.39 7.05 8.12 19.62 7.27 25.59 16.86 32.35 4.24 46.3 7.72 59.34"/>
    </g>
  </g>
</svg>